<?xml version="1.0" encoding="UTF-8" standalone="no"?><!DOCTYPE svg PUBLIC "-//W3C//DTD SVG 1.1//EN" "http://www.w3.org/Graphics/SVG/1.1/DTD/svg11.dtd"><svg width="100%" height="100%" viewBox="0 0 379 421" version="1.1" xmlns="http://www.w3.org/2000/svg" xmlns:xlink="http://www.w3.org/1999/xlink" xml:space="preserve" xmlns:serif="http://www.serif.com/" style="fill-rule:evenodd;clip-rule:evenodd;stroke-linejoin:round;stroke-miterlimit:2;"><path d="M199.802,101.012c26.31,15.197 52.582,30.355 78.892,45.552c28.863,-16.65 57.726,-33.34 86.589,-49.99c-3.338,-3.731 -7.815,-7.383 -12.173,-10.092c-46.141,-26.625 -92.283,-53.288 -138.463,-79.913c-16.061,-8.914 -35.656,-8.757 -51.639,0.471c-8.404,4.83 -16.768,9.7 -25.172,14.53c20.656,11.938 41.311,23.836 61.928,35.774l0,43.667l0.039,0Z" style="fill-rule:nonzero;"/><path d="M199.802,319.781l0,43.707c-20.656,11.899 -41.272,23.836 -61.928,35.735l25.172,14.53c15.826,9.15 35.264,9.346 51.246,0.668c30.591,-17.671 61.142,-35.303 91.733,-52.935l0,-71.509c-9.11,-5.262 -18.221,-10.524 -27.292,-15.786c-26.35,15.197 -52.621,30.394 -78.931,45.592" style="fill-rule:nonzero;"/><path d="M89.22,152.651c29.805,-17.2 59.65,-34.439 89.455,-51.639l0,-31.533c-20.656,-11.938 -41.311,-23.836 -61.928,-35.774c-14.765,8.521 -29.491,17.043 -44.256,25.564l0,83.722c-24.151,13.941 -48.34,27.881 -72.491,41.861l0,104.535c0.157,5.144 1.06,11.82 2.631,16.572c28.824,-16.65 57.726,-33.3 86.589,-49.99l0,-103.317Z" style="fill-rule:nonzero;"/><path d="M327.113,289.976l0,59.336c8.796,-5.066 17.553,-10.131 26.35,-15.236c15.04,-9.228 24.465,-25.407 25.015,-43.039l0,-30.709c-17.121,9.857 -34.243,19.752 -51.364,29.648" style="fill-rule:nonzero;"/><path d="M289.218,164.825l0,91.105l27.292,15.747l61.928,-35.774l0,-106.223c-0.157,-5.144 -1.06,-10.131 -2.67,-14.883c-28.784,16.689 -57.647,33.379 -86.549,50.029" style="fill-rule:nonzero;"/><path d="M178.675,319.781l-78.931,-45.552c-28.863,16.65 -57.687,33.3 -86.549,49.95c3.691,4.163 8.05,7.736 12.998,10.603c30.159,17.436 60.357,34.832 90.555,52.267c20.656,-11.938 41.272,-23.836 61.928,-35.735l0,-31.533Z" style="fill-rule:nonzero;"/><path d="M51.364,71.443c-8.404,4.83 -16.768,9.66 -25.132,14.53c-16.218,9.385 -26.232,26.703 -26.232,45.435l0,29.059c17.121,-9.896 34.243,-19.752 51.364,-29.648l0,-59.375Z" style="fill-rule:nonzero;"/><path d="M110.386,164.825l0,91.065c28.392,16.415 50.461,29.138 78.892,45.552c28.392,-16.415 50.461,-29.138 78.892,-45.552l0,-91.065c-28.392,-16.415 -50.461,-29.138 -78.892,-45.552c-28.431,16.415 -50.5,29.177 -78.892,45.552" style="fill-rule:nonzero;"/></svg>