<svg id="图层_1" data-name="图层 1" xmlns="http://www.w3.org/2000/svg" viewBox="0 0 450.24 74.69"><defs><style>.cls-1,.cls-2{fill:#ffffff;}.cls-2{stroke:#ffffff;stroke-miterlimit:10;}</style></defs><title>CarbonFX Logo</title><path class="cls-1" d="M162.33,398.12c-3.06-.32-6.09-.76-9.09-1.3A129.2,129.2,0,0,1,112,381.87a132.54,132.54,0,0,1-12.09-7.8q-3.72-2.71-7.24-5.66a42.9,42.9,0,0,0-6.18,6.6,42.22,42.22,0,1,0,75.94,25.36C162.39,399.62,162.37,398.86,162.33,398.12Zm-42.15,35.51a33.24,33.24,0,0,1-26.71-53.05q5.23,3.89,10.8,7.26a20.25,20.25,0,1,0,36,15.3q6.28,1.68,12.74,2.75A33.3,33.3,0,0,1,120.18,433.63Z" transform="translate(-77.96 -368.41)"/><path class="cls-2" d="M179.43,407h25.35q1.64-4.46,3.25-8.91H179.4a9.54,9.54,0,0,0-9.54,9.54v25.45a9.54,9.54,0,0,0,9.54,9.54h25.38q1.64-4.45,3.25-8.9h-28.6a.64.64,0,0,1-.67-.68V407.64A.64.64,0,0,1,179.43,407Z" transform="translate(-77.96 -368.41)"/><path class="cls-2" d="M228.08,398.06q-8.12,22.26-16.21,44.53h9.47q2-5.56,4.06-11.13h19.86l4.05,11.13h9.48l-16.21-44.53Zm.56,24.49,6.69-18.38L242,422.55Z" transform="translate(-77.96 -368.41)"/><path class="cls-2" d="M337.38,398.06H309.84v17.81h0v26.72h27.55a9.54,9.54,0,0,0,9.54-9.54v-7.63a9.5,9.5,0,0,0-1.47-5.09,9.45,9.45,0,0,0,1.48-5.09V407.6A9.55,9.55,0,0,0,337.38,398.06ZM338,433a.67.67,0,0,1-.68.68h-18.6v-8.91h18.6a.67.67,0,0,1,.68.67Zm0-17.81a.67.67,0,0,1-.68.67h-18.6V407h18.6a.67.67,0,0,1,.68.67Z" transform="translate(-77.96 -368.41)"/><path class="cls-2" d="M428.52,426.14l-20.35-28.08h-8.91v44.53h8.91V413.47c6.85,9.83,14.68,21.29,20.35,29.12h8.91V398.06h-8.91Z" transform="translate(-77.96 -368.41)"/><path class="cls-2" d="M453.42,407h26l3.24-8.9H444.51v44.53h8.91V424.78H473.9l3.24-8.91H453.42Z" transform="translate(-77.96 -368.41)"/><path class="cls-2" d="M301.84,417.57v-10a9.55,9.55,0,0,0-9.55-9.54H264.75v44.53h8.9V427.11h13.93q2.82,7.74,5.63,15.48h9.48q-3-8.26-6-16.54A9.56,9.56,0,0,0,301.84,417.57Zm-8.91,0a.66.66,0,0,1-.67.67H273.65V407h18.61a.66.66,0,0,1,.67.67Z" transform="translate(-77.96 -368.41)"/><path class="cls-2" d="M382.63,398.06H363.55A9.54,9.54,0,0,0,354,407.6v25.45a9.54,9.54,0,0,0,9.54,9.54h19.08a9.55,9.55,0,0,0,9.55-9.54V407.6A9.55,9.55,0,0,0,382.63,398.06Zm.64,34.95a.68.68,0,0,1-.67.68h-19a.68.68,0,0,1-.67-.68V407.64a.67.67,0,0,1,.67-.67h19a.67.67,0,0,1,.67.67Z" transform="translate(-77.96 -368.41)"/><path class="cls-2" d="M510.58,422.87h-5.4v7.42l10.33,12.3h11.62Z" transform="translate(-77.96 -368.41)"/><path class="cls-2" d="M527.13,398.06H515.51l-10.33,12.3v7.42h5.4Z" transform="translate(-77.96 -368.41)"/><path class="cls-2" d="M478.14,442.59h11.62l10.33-12.3v-7.42h-5.4Z" transform="translate(-77.96 -368.41)"/><path class="cls-2" d="M486.25,407.72q4.22,5,8.44,10.06h5.4v-7.42l-10.32-12.3Q488,402.89,486.25,407.72Z" transform="translate(-77.96 -368.41)"/></svg>