<?xml version="1.0" encoding="utf-8"?>
<svg
  xmlns="http://www.w3.org/2000/svg"
  viewBox="0 0 377.70516 107.1504"
  role="img"
  aria-label="Silicore Logo"
  style="color:#9affdd"
>
  <g transform="translate(-109.82916 -367.5854)" fill="currentColor">
    <path d="M243.12,428.73c0,3.06-2.39,5.44-5.44,5.44h-14.99v14.85v0.15h15.06c11.24,0,20.38-9.13,20.38-20.38V413.8h-15V428.73z"/>
    <path d="M222.69,413.8v14.99h14.99v-14.93c0-3.06,2.39-5.44,5.44-5.44h15v-14.99h-15.06C231.82,393.42,222.69,402.56,222.69,413.8"/>
    <path d="M263.5,408.27v40.9h0.15c8.19,0,14.84-6.65,14.84-14.84v-40.9h-0.15C270.15,393.42,263.5,400.08,263.5,408.27"/>
    <path d="M298.86,428.67c0-9.28,0-22.27,0-35.25h-0.15c-8.19,0-14.84,6.65-14.84,14.84v20.47c0,11.28,9.16,20.44,20.44,20.44c0-5,0.06-10,0.06-14.99C301.28,434.18,298.86,431.76,298.86,428.67"/>
    <path d="M309.61,408.27v40.9h0.15c8.19,0,14.84-6.65,14.84-14.84v-40.9h-0.15C316.26,393.42,309.61,400.08,309.61,408.27"/>
    <path d="M329.98,413.83v14.93c0,11.28,9.16,20.44,20.44,20.44h15v-14.99h-14.93c-3.09,0-5.5-2.41-5.5-5.5v-14.81c0-3.09,2.41-5.5,5.5-5.5h14.93v-14.99h-15C339.14,393.39,329.98,402.55,329.98,413.83"/>
    <path d="M370.79,413.86v35.31h15c11.28,0,20.44-9.16,20.44-20.44v-35.31h-15C379.95,393.42,370.79,402.58,370.79,413.86 M391.23,428.67c0,3.05-2.41,5.5-5.47,5.5c0-11.16,0.03-8.52,0.03-20.25c0-3.05,2.41-5.5,5.47-5.5C391.26,419.58,391.23,416.94,391.23,428.67"/>
    <path d="M447.03,408.42v-15h-15.06c-11.24,0-20.38,9.13-20.38,20.38v35.37h15.06V428.8C437.9,428.8,447.03,419.66,447.03,408.42 M424.27,416.16c0-5.51,4.59-10.08,10.09-10.08C434.36,411.59,429.77,416.16,424.27,416.16"/>
    <path d="M435.21,431.72c-3.45,2.31-4.37,7-2.05,10.45c1.57,2.34,3.14,4.67,4.71,7.01h18.13c-3.45-5.13-6.89-10.27-10.34-15.4C443.34,430.32,438.66,429.4,435.21,431.72"/>
    <path d="M472.9,408.39h14.93v-14.99h-14.99c-11.28,0-20.44,9.16-20.44,20.44v14.93c0,11.28,9.16,20.44,20.44,20.44h14.99v-14.99H472.9c-3.09,0-5.5-2.41-5.5-5.5h15.06v-14.81H467.4C467.4,410.8,469.81,408.39,472.9,408.39"/>
    <path d="M160.9,393.51c6.7,3.87,13.39,7.73,20.09,11.6c7.35-4.24,14.7-8.49,22.05-12.73c-0.85-0.95-1.99-1.88-3.1-2.57c-11.75-6.78-23.5-13.57-35.26-20.35c-4.09-2.27-9.08-2.23-13.15,0.12c-2.14,1.23-4.27,2.47-6.41,3.7c5.26,3.04,10.52,6.07,15.77,9.11V393.51z"/>
    <path d="M160.9,449.22v11.13c-5.26,3.03-10.51,6.07-15.77,9.1l6.41,3.7c4.03,2.33,8.98,2.38,13.05,0.17c7.79-4.5,15.57-8.99,23.36-13.48v-18.21c-2.32-1.34-4.64-2.68-6.95-4.02C174.29,441.48,167.6,445.35,160.9,449.22"/>
    <path d="M132.74,406.66c7.59-4.38,15.19-8.77,22.78-13.15v-8.03c-5.26-3.04-10.52-6.07-15.77-9.11c-3.76,2.17-7.51,4.34-11.27,6.51v21.32c-6.15,3.55-12.31,7.1-18.46,10.66v26.62c0.04,1.31,0.27,3.01,0.67,4.22c7.34-4.24,14.7-8.48,22.05-12.73V406.66z"/>
    <path d="M193.32,441.63v15.11c2.24-1.29,4.47-2.58,6.71-3.88c3.83-2.35,6.23-6.47,6.37-10.96v-7.82C202.04,436.59,197.68,439.11,193.32,441.63"/>
    <path d="M183.67,409.76v23.2l6.95,4.01l15.77-9.11v-27.05c-0.04-1.31-0.27-2.58-0.68-3.79C198.38,401.27,191.03,405.52,183.67,409.76"/>
    <path d="M155.52,449.22l-20.1-11.6c-7.35,4.24-14.69,8.48-22.04,12.72c0.94,1.06,2.05,1.97,3.31,2.7c7.68,4.44,15.37,8.87,23.06,13.31c5.26-3.04,10.51-6.07,15.77-9.1V449.22z"/>
    <path d="M123.1,385.98c-2.14,1.23-4.27,2.46-6.4,3.7c-4.13,2.39-6.68,6.8-6.68,11.57v7.4c4.36-2.52,8.72-5.03,13.08-7.55V385.98z"/>
    <path d="M138.13,409.76v23.19c7.23,4.18,12.85,7.42,20.09,11.6c7.23-4.18,12.85-7.42,20.09-11.6v-23.19c-7.23-4.18-12.85-7.42-20.09-11.6C150.98,402.34,145.36,405.59,138.13,409.76"/>
  </g>
</svg>
