<?xml version="1.0" encoding="UTF-8" standalone="no"?><!DOCTYPE svg PUBLIC "-//W3C//DTD SVG 1.1//EN" "http://www.w3.org/Graphics/SVG/1.1/DTD/svg11.dtd"><svg width="100%" height="100%" viewBox="0 0 278 347" version="1.1" xmlns="http://www.w3.org/2000/svg" xmlns:xlink="http://www.w3.org/1999/xlink" xml:space="preserve" xmlns:serif="http://www.serif.com/" style="fill-rule:evenodd;clip-rule:evenodd;stroke-linejoin:round;stroke-miterlimit:2;"><path d="M157.114,134.305c18.97,-18.97 49.774,-18.97 68.744,0c18.97,18.97 18.97,49.774 0,68.744c-18.97,18.97 -49.774,18.97 -68.744,0c-18.97,-18.97 -18.97,-49.774 0,-68.744Z" style="fill:#9fd;"/><path d="M246.51,127.68c-4.09,-5.47 -8.97,-10.32 -14.48,-14.36l11.86,-16.11c7.09,5.2 13.37,11.44 18.63,18.48l-16.01,11.99Z" style="fill:#9fd;fill-rule:nonzero;"/><path d="M234.82,21.22c-13.74,-4.04 -28.28,-6.21 -43.32,-6.21c-16.42,0 -32.23,2.58 -47.07,7.36l-4.58,-14.29c16.28,-5.24 33.66,-8.08 51.65,-8.08c16.48,0 32.45,2.38 47.53,6.81l-4.21,14.41Z" style="fill:#9fd;fill-rule:nonzero;"/><path d="M191.5,272.31c-3.68,0 -7.31,-0.19 -10.89,-0.57c0.94,-4.95 1.87,-9.9 2.81,-14.82c2.66,0.25 5.36,0.38 8.08,0.38c9.99,0 19.64,-1.66 28.62,-4.74l-6.44,-18.94c-6.96,2.38 -14.42,3.67 -22.18,3.67c-7.83,0 -15.35,-1.31 -22.36,-3.73l-6.5,18.92c3.42,1.18 6.93,2.15 10.52,2.9c-1.15,4.86 -2.3,9.74 -3.46,14.62c-18.51,-3.97 -35.19,-12.89 -48.6,-25.3c3.22,-3.85 6.45,-7.7 9.64,-11.52c4.75,4.49 10.01,8.45 15.66,11.79l10.23,-17.19c-11.23,-6.64 -20.41,-16.39 -26.35,-28.06l-17.81,9.13c2.83,5.56 6.23,10.78 10.14,15.56c-20.49,17.08 -40.99,34.15 -61.48,51.23c-2.2,-2.62 -4.29,-5.33 -6.3,-8.11c-8.06,5.89 -16.15,11.79 -16.15,11.79c1.35,1.86 10.246,12.96 11.656,14.76c-14.573,14.921 -33.141,33.626 -50.336,52.4l30.91,0c12.67,-11.47 25.34,-22.94 38.01,-34.41c14.65,12.53 31.24,22.86 49.25,30.47c-0.39,1.31 -0.78,2.62 -1.17,3.93l24.04,0c2.37,-8.22 4.47,-15.5 4.47,-15.5c-24.84,-7.04 -47.38,-19.64 -66.11,-36.41c4.27,-5.11 8.53,-10.2 12.78,-15.29c17.77,15.97 39.44,27.73 63.41,33.67c0.79,-3.24 1.59,-6.47 2.38,-9.71c10.73,2.67 21.94,4.09 33.47,4.09c2.17,13.05 4.34,26.1 6.52,39.15l26.99,0c-0.25,-5.95 -0.5,-11.89 -0.75,-17.84c5.21,-1.4 10.43,-2.81 15.64,-4.21c-0.3,-3.31 -0.6,-6.62 -0.9,-9.93c1.96,-1.01 3.91,-2.01 5.87,-3.02c0.74,-5.7 1.47,-11.39 2.21,-17.09c1.71,-11.45 3.41,-22.9 5.12,-34.35c-1.67,-2.52 -3.34,-5.05 -3.34,-5.05c-16.41,10.95 -36.12,17.33 -57.3,17.33Z" style="fill:#9fd;fill-rule:nonzero;"/><path d="M277.54,17.81c-6.83,-3.91 -13.95,-7.37 -21.32,-10.33l-13.12,32.47c-15.92,-6.4 -33.37,-9.92 -51.57,-9.92c-34.26,0 -65.79,12.5 -89.96,33.15c0,0 29.37,34.11 32.65,37.88c-5.44,4.61 -10.31,9.86 -14.49,15.64l16.17,11.78c6.51,-8.98 15.14,-16.32 25.15,-21.3c0,0 -13.58,-27.4 -15.5,-31.33c13.83,-6.94 29.44,-10.81 45.95,-10.81c6.82,0 13.48,0.66 19.93,1.92c-1.31,4.85 -2.62,9.69 -3.93,14.53c-5.19,-0.95 -10.53,-1.44 -15.98,-1.44c-6.16,0 -12.23,0.63 -18.05,1.84l4.05,19.59c4.52,-0.94 9.2,-1.43 13.99,-1.43c11.85,0 23.01,3.01 32.74,8.32l9.53,-17.59c-5.22,-2.84 -10.76,-5.17 -16.54,-6.93c1.3,-4.82 2.61,-9.65 3.91,-14.48c3.05,0.89 6.03,1.94 8.95,3.11c0,0 1.86,-4.66 3.72,-9.31c13.37,5.38 25.5,13.26 35.8,23.01c0,0 3.34,-3.55 7.93,-8.43l0,-59.94l-0.01,0Z" style="fill:#9fd;fill-rule:nonzero;"/></svg>