<?xml version="1.0" encoding="UTF-8" standalone="no"?><!DOCTYPE svg PUBLIC "-//W3C//DTD SVG 1.1//EN" "http://www.w3.org/Graphics/SVG/1.1/DTD/svg11.dtd"><svg width="100%" height="100%" viewBox="0 0 455 513" version="1.1" xmlns="http://www.w3.org/2000/svg" xmlns:xlink="http://www.w3.org/1999/xlink" xml:space="preserve" xmlns:serif="http://www.serif.com/" style="fill-rule:evenodd;clip-rule:evenodd;stroke-linejoin:round;stroke-miterlimit:2;"><path d="M321.331,0.011l-81.882,0l0,347.887c0,45.59 -32.751,74.918 -72.582,74.918c-39.832,0 -75.238,-29.327 -75.238,-74.918c0,-52.673 41.165,-80.485 96.044,-74.727l0,-88.153c-7.966,-1.333 -15.932,-1.77 -22.576,-1.77c-89.848,0 -165.097,72.145 -165.097,161.546c0,94.722 74.353,167.304 165.534,167.304c80.112,0 165.097,-58.868 165.097,-169.96l0,-181.029c35.406,35.406 78.341,46.476 124.369,46.476l0,-81.445c-56.65,-3.989 -119.506,-41.165 -133.669,-126.14l0,0.011Z" style="fill:#9affdd;fill-rule:nonzero;"/></svg>