<?xml version="1.0" encoding="UTF-8" standalone="no"?><!DOCTYPE svg PUBLIC "-//W3C//DTD SVG 1.1//EN" "http://www.w3.org/Graphics/SVG/1.1/DTD/svg11.dtd"><svg width="100%" height="100%" viewBox="0 0 598 598" version="1.1" xmlns="http://www.w3.org/2000/svg" xmlns:xlink="http://www.w3.org/1999/xlink" xml:space="preserve" xmlns:serif="http://www.serif.com/" style="fill-rule:evenodd;clip-rule:evenodd;stroke-linejoin:round;stroke-miterlimit:2;"><path d="M457.5,110c-20,0 -35,15 -35,35c0,20 15,35 35,35c20,0 35,-15 35,-35c0,-20 -15,-35 -35,-35Z" style="fill:#9affdd;fill-rule:nonzero;"/><path d="M300,155c-82.5,0 -147.5,67.5 -147.5,147.5c0,80 67.5,147.5 147.5,147.5c80,0 147.5,-67.5 147.5,-147.5c0,-80 -65,-147.5 -147.5,-147.5Zm0,242.5c-52.5,0 -95,-42.5 -95,-95c0,-52.5 42.5,-95 95,-95c52.5,0 95,42.5 95,95c0,52.5 -42.5,95 -95,95Z" style="fill:#9affdd;fill-rule:nonzero;"/><path d="M420,0l-237.5,0c-102.5,0 -182.5,80 -182.5,180l0,237.5c0,100 80,180 180,180l237.5,0c100,0 180,-80 180,-180l0,-237.5c2.5,-100 -77.5,-180 -177.5,-180Zm122.5,420c0,67.5 -55,125 -125,125l-237.5,0c-67.5,0 -125,-55 -125,-125l0,-237.5c0,-67.5 55,-125 125,-125l237.5,0c67.5,0 125,55 125,125l0,237.5Z" style="fill:#9affdd;fill-rule:nonzero;"/></svg>